<svg width="17" height="17" viewBox="0 0 17 17" fill="none" xmlns="http://www.w3.org/2000/svg">
<path d="M8.50006 15.1567C8.31673 15.1567 8.14539 15.1073 7.98539 15.022L6.35939 14.0567C6.11606 13.9213 6.23806 13.872 6.31139 13.8473C6.64206 13.7373 6.70339 13.7133 7.04539 13.5187C7.08273 13.494 7.13139 13.5053 7.16873 13.53L8.41539 14.2767C8.46473 14.3007 8.52606 14.3007 8.56273 14.2767L13.4421 11.452C13.4914 11.428 13.5154 11.3787 13.5154 11.3173V5.67867C13.5154 5.61801 13.4914 5.56867 13.4421 5.54467L8.56273 2.73201C8.51406 2.70734 8.45273 2.70734 8.41539 2.73201L3.53473 5.54401C3.48606 5.56801 3.46139 5.63001 3.46139 5.67801V11.316C3.46139 11.3647 3.48606 11.4267 3.53473 11.4507L4.86806 12.222C5.58939 12.5873 6.04273 12.1587 6.04273 11.732V6.16801C6.04273 6.09467 6.10339 6.02067 6.18939 6.02067H6.81339C6.88539 6.02067 6.96006 6.08201 6.96006 6.16801V11.7327C6.96006 12.6987 6.43473 13.262 5.51739 13.262C5.23606 13.262 5.01606 13.262 4.39206 12.9553L3.10873 12.2227C2.95237 12.1318 2.8226 12.0014 2.7324 11.8447C2.6422 11.6879 2.59473 11.5102 2.59473 11.3293V5.69067C2.59473 5.32401 2.79006 4.98134 3.10873 4.79801L7.98606 1.97334C8.14439 1.88866 8.32117 1.84436 8.50073 1.84436C8.68028 1.84436 8.85706 1.88866 9.01539 1.97334L13.8934 4.79801C14.2127 4.98067 14.4074 5.32401 14.4074 5.69067V11.3293C14.4074 11.6953 14.2121 12.038 13.8934 12.2227L9.01539 15.0467C8.85473 15.12 8.67139 15.1567 8.50006 15.1567ZM10.0041 11.2793C7.86406 11.2793 7.42406 10.3007 7.42406 9.47001C7.42406 9.39667 7.48539 9.32267 7.57073 9.32267H8.20673C8.28006 9.32267 8.34073 9.37134 8.34073 9.44534C8.43873 10.0927 8.71939 10.4113 10.0167 10.4113C11.0434 10.4113 11.4847 10.178 11.4847 9.62801C11.4847 9.31001 11.3614 9.07801 9.76006 8.91934C8.42739 8.78601 7.59606 8.49067 7.59606 7.42734C7.59606 6.43734 8.42739 5.85001 9.82206 5.85001C11.3867 5.85001 12.1574 6.38934 12.2547 7.56201C12.2536 7.60158 12.2406 7.6399 12.2174 7.67201C12.1927 7.69601 12.1567 7.72067 12.1201 7.72067H11.4847C11.4533 7.72001 11.423 7.70889 11.3986 7.6891C11.3743 7.6693 11.3572 7.64194 11.3501 7.61134C11.2027 6.93667 10.8241 6.71801 9.82206 6.71801C8.69606 6.71801 8.56139 7.10934 8.56139 7.40267C8.56139 7.75667 8.71939 7.86667 10.2374 8.06267C11.7414 8.25801 12.4507 8.53934 12.4507 9.59201C12.4374 10.6687 11.5581 11.2793 10.0041 11.2793Z" fill="#111827"/>
</svg>
