<svg width="17" height="17" viewBox="0 0 17 17" fill="none" xmlns="http://www.w3.org/2000/svg">
<path d="M8.50006 9.18664C9.15728 9.18664 9.69006 8.65386 9.69006 7.99664C9.69006 7.33942 9.15728 6.80664 8.50006 6.80664C7.84284 6.80664 7.31006 7.33942 7.31006 7.99664C7.31006 8.65386 7.84284 9.18664 8.50006 9.18664Z" fill="#111827"/>
<path d="M5.16799 10.3627L4.90466 10.2954C2.94866 9.80137 1.82666 8.96137 1.82666 7.99403C1.82666 7.02603 2.94933 6.1867 4.90466 5.6927L5.16799 5.62603L5.24199 5.8867C5.43969 6.56916 5.69298 7.23428 5.99933 7.87537L6.05599 7.99403L5.99933 8.1127C5.69266 8.7547 5.43866 9.42003 5.24199 10.1027L5.16799 10.3627ZM4.78333 6.29937C3.29733 6.71803 2.38466 7.3567 2.38466 7.99403C2.38466 8.63003 3.29666 9.26937 4.78333 9.68737C4.96533 9.1087 5.18533 8.5427 5.43999 7.99403C5.18348 7.44445 4.9641 6.87829 4.78333 6.29937ZM11.8313 10.3627L11.758 10.1014C11.5598 9.41877 11.3063 8.75346 11 8.11203L10.9433 7.99403L11 7.8747C11.3067 7.23403 11.5593 6.56803 11.758 5.88537L11.8313 5.62537L12.0947 5.69203C14.0513 6.18603 15.1727 7.02537 15.1727 7.99403C15.1727 8.96203 14.0507 9.80137 12.0947 10.2954L11.8313 10.3627ZM11.558 7.99403C11.8247 8.57137 12.0467 9.13937 12.216 9.68737C13.7027 9.26937 14.6153 8.63003 14.6153 7.99403C14.6153 7.3567 13.7033 6.7187 12.216 6.29937C12.0342 6.87811 11.8144 7.44423 11.558 7.99403Z" fill="#111827"/>
<path d="M4.77951 6.29663L4.70618 6.03663C4.15551 4.09796 4.32218 2.70929 5.16418 2.22529C5.98751 1.74863 7.31218 2.31196 8.69951 3.73529L8.88884 3.92996L8.69951 4.12396C8.20676 4.63642 7.7564 5.188 7.35284 5.77329L7.27751 5.88129L7.14684 5.89196C6.43723 5.94769 5.73335 6.06118 5.04218 6.23129L4.77951 6.29663ZM5.83418 2.61062C5.68484 2.61062 5.55284 2.64329 5.44151 2.70729C4.88951 3.02529 4.79218 4.13263 5.17218 5.62729C5.76618 5.49596 6.36551 5.40196 6.96951 5.34929C7.31919 4.85333 7.70065 4.38056 8.11151 3.93396C7.24284 3.08929 6.42284 2.61062 5.83418 2.61062ZM11.1655 13.9333C10.3735 13.9333 9.35618 13.336 8.30018 12.252L8.11151 12.058L8.30018 11.8646C8.793 11.3513 9.24358 10.7991 9.64751 10.2133L9.72218 10.1066L9.85151 10.094C10.5614 10.0392 11.2655 9.92617 11.9568 9.75596L12.2202 9.68929L12.2942 9.94996C12.8422 11.8873 12.6762 13.278 11.8355 13.762C11.6314 13.8777 11.4001 13.9368 11.1655 13.9333ZM8.88884 12.0533C9.75684 12.898 10.5775 13.3773 11.1655 13.3773C11.3155 13.3773 11.4475 13.344 11.5582 13.2806C12.1108 12.962 12.2088 11.8526 11.8275 10.358C11.2342 10.49 10.6342 10.5846 10.0288 10.6373C9.68065 11.134 9.29981 11.6071 8.88884 12.0533Z" fill="#111827"/>
<path d="M12.2198 6.29663L11.9565 6.23063C11.2652 6.05999 10.5611 5.94649 9.85118 5.8913L9.72184 5.87997L9.64718 5.77197C9.24381 5.18636 8.79319 4.63474 8.29984 4.12263L8.11118 3.92863L8.29984 3.7353C9.68651 2.31263 11.0105 1.7493 11.8352 2.2253C12.6765 2.70997 12.8438 4.09863 12.2938 6.03663L12.2198 6.29663ZM10.0285 5.3493C10.6645 5.40597 11.2672 5.5013 11.8272 5.6273C12.2078 4.13263 12.1105 3.0253 11.5578 2.70663C11.0085 2.38863 9.97451 2.8753 8.88851 3.93397C9.29918 4.38063 9.68051 4.85263 10.0285 5.3493ZM5.83384 13.9333C5.59926 13.9366 5.36802 13.8775 5.16384 13.762C4.32184 13.278 4.15518 11.888 4.70518 9.94997L4.77718 9.6893L5.04051 9.75597C5.68318 9.91797 6.39118 10.032 7.14584 10.094L7.27518 10.1066L7.35051 10.2133C7.75318 10.7986 8.20384 11.3513 8.69718 11.8646L8.88651 12.058L8.69718 12.252C7.64184 13.3366 6.62451 13.9333 5.83384 13.9333ZM5.17184 10.3586C4.79184 11.8533 4.88918 12.9626 5.44118 13.2813C5.99118 13.5946 7.02184 13.1113 8.11118 12.0533C7.70048 11.6066 7.31902 11.1338 6.96918 10.638C6.36457 10.5845 5.76416 10.4912 5.17184 10.3586Z" fill="#111827"/>
<path d="M8.49994 10.7086C8.04194 10.7086 7.57194 10.6893 7.09994 10.65L6.96928 10.6386L6.89394 10.5306C6.62778 10.1479 6.37735 9.75447 6.14327 9.35131C5.91093 8.94706 5.69498 8.53362 5.49594 8.11198L5.43994 7.99398L5.49594 7.87464C5.69527 7.45331 5.91061 7.03998 6.14327 6.63598C6.37461 6.23864 6.62727 5.84131 6.89394 5.45598L6.96928 5.34931L7.09994 5.33731C8.0312 5.25931 8.96735 5.25931 9.89861 5.33731L10.0279 5.34998L10.1033 5.45664C10.6365 6.22248 11.1048 7.03151 11.5033 7.87531L11.5586 7.99464L11.5033 8.11264C11.1059 8.95702 10.6375 9.76614 10.1033 10.5313L10.0279 10.6393L9.89861 10.6506C9.42794 10.6886 8.95727 10.7086 8.49994 10.7086ZM7.27728 10.106C8.10061 10.168 8.89928 10.168 9.72194 10.106C10.1812 9.43345 10.5895 8.72748 10.9433 7.99398C10.5907 7.25982 10.1824 6.55375 9.72194 5.88198C8.90826 5.81931 8.09096 5.81931 7.27728 5.88198C6.81643 6.55351 6.40811 7.2596 6.05594 7.99398C6.41053 8.72707 6.81875 9.43299 7.27728 10.106Z" fill="#111827"/>
</svg>
